<svg width="35" height="33" viewBox="0 0 35 33" fill="none" xmlns="http://www.w3.org/2000/svg">
<path fill-rule="evenodd" clip-rule="evenodd" d="M0.879043 32.6705H0.769312C0.769312 32.6158 0.741829 32.5335 0.741829 32.5059C0.741829 32.4786 0.741829 32.4239 0.659382 32.4239H0.494486V32.6705H0.412039V32.0946H0.659382C0.769312 32.0946 0.85156 32.1223 0.85156 32.2316C0.85156 32.314 0.824078 32.3416 0.796794 32.3687C0.824277 32.3963 0.85156 32.4237 0.85156 32.4786V32.5882C0.85156 32.6158 0.85156 32.6158 0.879043 32.6158V32.6705ZM0.769312 32.2593C0.769312 32.177 0.714347 32.177 0.686864 32.177H0.494486V32.3416H0.659382C0.714347 32.3416 0.769312 32.314 0.769312 32.2593V32.2593ZM1.23632 32.3689C1.23632 32.04 0.96169 31.7653 0.604417 31.7653C0.274825 31.7653 0 32.04 0 32.3689C0 32.7254 0.274825 33 0.604417 33C0.96149 32.9998 1.23632 32.7254 1.23632 32.3689ZM1.15387 32.3689C1.15387 32.6707 0.906724 32.89 0.604417 32.89C0.302109 32.89 0.0824476 32.6705 0.0824476 32.3689C0.0824476 32.0946 0.302308 31.8477 0.604417 31.8477C0.906525 31.8477 1.15387 32.0946 1.15387 32.3689ZM35 21.2868C35 22.1098 34.478 22.4934 33.5438 22.4934H31.7585V21.6704H33.5438C33.7087 21.6704 33.8461 21.6431 33.9013 21.5884C33.9561 21.5334 34.011 21.451 34.011 21.3415C34.011 21.2315 33.9563 21.1219 33.9013 21.0673C33.8461 21.0122 33.7364 20.9849 33.5715 20.9849C32.7201 20.9573 31.6485 21.0122 31.6485 19.8054C31.6485 19.2565 32.0056 18.653 32.9671 18.653H34.8076V19.4761H33.1043C32.9398 19.4761 32.8297 19.4761 32.7472 19.5308C32.6648 19.6131 32.61 19.6954 32.61 19.8326C32.61 19.9698 32.6925 20.0521 32.8022 20.1072C32.9123 20.1345 33.0223 20.1619 33.1597 20.1619H33.654C34.1759 20.1619 34.5057 20.2715 34.7256 20.4638C34.8901 20.6556 35 20.9028 35 21.2868V21.2868ZM31.1264 20.4638C30.9065 20.2715 30.5767 20.1619 30.0547 20.1619H29.5605C29.4232 20.1619 29.3131 20.1343 29.2034 20.1072C29.0932 20.0521 29.0112 19.9698 29.0112 19.8326C29.0112 19.6954 29.0385 19.6131 29.1484 19.5308C29.2309 19.4761 29.3406 19.4761 29.5055 19.4761H31.2088V18.653H29.3683C28.3791 18.653 28.0493 19.2565 28.0493 19.8054C28.0493 21.012 29.1209 20.9573 29.9727 20.9849C30.1372 20.9849 30.2473 21.0122 30.3021 21.0673C30.3568 21.1219 30.4122 21.2315 30.4122 21.3415C30.4122 21.451 30.357 21.5334 30.3021 21.5884C30.2196 21.6431 30.1099 21.6704 29.945 21.6704H28.1592V22.4934H29.945C30.8788 22.4934 31.401 22.1096 31.401 21.2868C31.401 20.9028 31.2913 20.6556 31.1264 20.4638V20.4638ZM27.6098 21.6982H25.4399V20.9301H27.555V20.1623H25.4399V19.4488H27.6098V18.6534H24.5331V22.4936H27.6098V21.6982ZM23.544 18.8455C23.2417 18.6809 22.8846 18.6532 22.4176 18.6532H20.3024V22.4934H21.2362V21.0945H22.2254C22.5548 21.0945 22.7474 21.1221 22.8848 21.2592C23.0497 21.451 23.0497 21.7803 23.0497 22.0273V22.4934H23.956V21.7527C23.956 21.3962 23.9287 21.2315 23.8188 21.0396C23.7363 20.9297 23.5719 20.7927 23.352 20.7103C23.5989 20.6284 24.0114 20.2991 24.0114 19.6954C24.0112 19.2567 23.8463 19.0098 23.544 18.8455V18.8455ZM18.3243 18.6532H15.3846L14.2033 19.9151L13.0769 18.6532H9.36816V22.4934H13.0221L14.2035 21.2315L15.3299 22.4934H17.1156V21.2045H18.2695C19.0661 21.2045 19.8631 20.9849 19.8631 19.9151C19.8629 18.8728 19.0386 18.6532 18.3243 18.6532ZM22.8021 20.2444C22.6649 20.2991 22.5275 20.2991 22.3626 20.2991L21.2362 20.3268V19.4486H22.3626C22.5275 19.4486 22.6924 19.4486 22.8021 19.531C22.9123 19.586 22.9943 19.6956 22.9943 19.8603C22.9943 20.0249 22.9123 20.1621 22.8021 20.2444V20.2444ZM18.3243 20.4363H17.1154V19.4486H18.3243C18.6541 19.4486 18.8737 19.586 18.8737 19.9151C18.8737 20.2444 18.6539 20.4363 18.3243 20.4363ZM14.7802 20.5733L16.2087 19.0649V22.1645L14.7802 20.5733ZM12.5549 21.6982H10.2747V20.9301H12.3076V20.1623H10.2747V19.4488H12.5824L13.5989 20.5735L12.5549 21.6982V21.6982ZM32.4449 15.8827H31.1264L29.3956 13.0023V15.8827H27.5277L27.1703 15.0322H25.2473L24.8902 15.8827H23.8186C23.3791 15.8827 22.8021 15.7729 22.4727 15.4436C22.1704 15.1145 22.0055 14.6757 22.0055 13.9898C22.0055 13.4138 22.088 12.8926 22.4998 12.4812C22.7745 12.1793 23.2691 12.0423 23.9008 12.0423H24.7799V12.8653H23.9008C23.5715 12.8653 23.3789 12.9202 23.1867 13.0849C23.0218 13.2495 22.9394 13.5512 22.9394 13.9626C22.9394 14.374 23.0218 14.6759 23.1867 14.8679C23.3239 15.005 23.5715 15.0598 23.8184 15.0598H24.2306L25.5492 12.0425H26.9229L28.4613 15.6633V12.0423H29.89L31.5109 14.7031V12.0423H32.4447V15.8827H32.4449V15.8827ZM21.5385 12.0423H20.6047V15.8827H21.5385V12.0423V12.0423ZM19.5879 12.2069C19.2856 12.0423 18.9562 12.0423 18.4892 12.0423H16.3736V15.8827H17.2801V14.4836H18.2691C18.5989 14.4836 18.8188 14.511 18.956 14.6482C19.1209 14.8403 19.0932 15.1696 19.0932 15.3889V15.8827H20.027V15.1145C20.027 14.7854 19.9997 14.6208 19.8625 14.4287C19.7801 14.3189 19.6152 14.1817 19.423 14.0996C19.6699 13.9898 20.0824 13.6882 20.0824 13.0847C20.0826 12.6458 19.89 12.3988 19.5879 12.2069ZM15.7142 15.0873H13.5714V14.3191H15.6868V13.5237H13.5714V12.8379H15.7142V12.0425H12.6374V15.8829H15.7142V15.0873ZM11.9505 12.0423H10.4396L9.31319 14.6482L8.10436 12.0423H6.6209V15.6631L5.05499 12.0423H3.68146L2.03311 15.8827H3.02208L3.37916 15.0322H5.30214L5.65921 15.8827H7.52743V12.8653L8.87347 15.8827H9.67007L11.0163 12.8653V15.8827H11.9503V12.0423H11.9505ZM26.8409 14.2094L26.2088 12.7007L25.5771 14.2094H26.8409ZM18.8737 13.606C18.7365 13.6884 18.5991 13.6884 18.4067 13.6884H17.2801V12.8381H18.4065C18.5714 12.8381 18.7634 12.8381 18.8735 12.893C18.9833 12.9753 19.0384 13.0851 19.0384 13.2495C19.0384 13.414 18.9835 13.551 18.8737 13.606V13.606ZM3.70875 14.2094L4.34065 12.7007L4.97255 14.2094H3.70875V14.2094ZM34.7803 0H2.00543V13.8254L3.13181 11.2743H5.5218L5.85159 11.9053V11.2743H8.65381L9.28571 12.6458L9.89013 11.2743H18.8188C19.2306 11.2743 19.5877 11.3567 19.8627 11.576V11.2743H22.3077V11.576C22.7195 11.3565 23.2415 11.2743 23.8461 11.2743H27.3899L27.7197 11.9053V11.2743H30.3296L30.7143 11.9053V11.2743H33.269V16.6508H30.6868L30.1925 15.828V16.6508H26.9781L26.621 15.7731H25.824L25.467 16.6508H23.7913C23.1319 16.6508 22.6372 16.4862 22.3079 16.3217V16.6508H18.3243V15.4164C18.3243 15.2517 18.2968 15.2243 18.1869 15.2243H18.0497V16.6506H10.3571V15.9648L10.0825 16.6506H8.46163L8.18701 15.9922V16.6506H5.08248L4.75289 15.7729H3.95609L3.59902 16.6506H2.00543V32.8626H34.7803V23.0146C34.4233 23.1792 33.9286 23.2616 33.4341 23.2616H31.0439V22.9323C30.7693 23.152 30.2746 23.2616 29.8078 23.2616H22.2802V22.0273C22.2802 21.8627 22.2529 21.8627 22.1153 21.8627H21.9781V23.2616H19.5054V21.8078C19.0936 21.9997 18.6264 21.9997 18.2143 21.9997H17.9395V23.2616H14.9176L14.2035 22.4385L13.4069 23.2616H8.54388V17.8853H13.4889L14.2033 18.7079L14.9726 17.8853H18.2968C18.6812 17.8853 19.3133 17.94 19.5879 18.2142V17.8853H22.5548C22.8571 17.8853 23.4342 17.94 23.8186 18.2142V17.8853H28.2967V18.2144C28.544 17.9948 29.0112 17.8855 29.423 17.8855H31.923V18.2144C32.198 18.0225 32.5823 17.8855 33.077 17.8855H34.7803V0V0Z" fill="white" fill-opacity="0.6"/>
</svg>
