<svg width="55" height="23" viewBox="0 0 55 23" fill="none" xmlns="http://www.w3.org/2000/svg">
<g clip-path="url(#clip0_1605_191)">
<path d="M15.1012 0.691406H9.40217C6.88393 0.800839 4.82554 1.73305 4.2312 3.65541C3.92129 4.65796 3.75074 5.75903 3.50841 6.7983C2.27644 12.0826 1.18404 17.5126 0.00561523 22.6914H44.3748C47.805 22.6914 50.1603 22.0252 50.7966 19.5228C51.0923 18.3604 51.3756 17.044 51.6585 15.7669C52.7612 10.7876 53.865 5.80854 54.9946 0.691406H15.1012Z" fill="white" fill-opacity="0.4"/>
<path d="M14.6562 8.51022C14.8945 8.35931 15.2015 7.67206 14.8508 7.38593C14.7398 7.29535 14.554 7.26905 14.2948 7.30934C14.0544 7.34664 13.9161 7.42174 13.8222 7.53931C13.6713 7.72831 13.5328 8.29849 13.7666 8.51031C13.9944 8.71648 14.5045 8.60615 14.6562 8.51022ZM11.2646 7.38593C11.0938 8.40435 10.9015 9.40294 10.7086 10.401C9.47013 10.413 8.20567 10.4572 7.01116 10.3754C7.23676 9.39897 7.39857 8.36378 7.62277 7.38593H6.28836C5.81071 9.87678 5.37613 12.4074 4.84277 14.8471H6.20503C6.41865 13.5957 6.61856 12.3314 6.89998 11.1421C8.06146 11.1158 9.45351 11.0699 10.5697 11.1676C10.3395 12.4041 10.0614 13.5963 9.84686 14.8471H11.2091C11.6469 12.3194 12.108 9.81338 12.6548 7.38593H11.2646ZM30.5302 9.53231C29.4703 9.13883 28.6369 9.80376 28.2506 10.4266C28.3383 10.1495 28.3743 9.82499 28.4453 9.53231H27.3889C27.1306 11.3732 26.75 13.1015 26.3881 14.8471H27.5836C27.7511 13.811 27.8235 12.4143 28.1951 11.4231C28.4922 10.6311 29.2696 9.95635 30.3914 10.3244C30.4069 10.0323 30.4979 9.80922 30.5302 9.53231ZM31.1973 13.5951C31.0871 13.3334 31.0587 12.9014 31.0862 12.5729C31.1479 11.8347 31.4407 10.9358 31.8924 10.5288C32.5158 9.96717 33.7465 10.0601 34.7281 10.3755C34.7585 10.0714 34.825 9.80019 34.8672 9.50681C33.2573 9.26513 31.7297 9.41554 30.9196 10.1967C30.1266 10.9615 29.6069 12.7192 29.9743 13.8251C30.4043 15.1192 32.3328 15.1896 33.8941 14.6939C33.9632 14.4338 33.9998 14.1438 34.0609 13.8763C33.2076 14.2835 31.5765 14.4953 31.1973 13.5951ZM44.6249 9.55781C43.5683 9.07226 42.6887 9.887 42.3453 10.3754C42.4431 10.1248 42.4487 9.78918 42.5398 9.53221H41.4835C41.1986 11.3571 40.8554 13.1283 40.455 14.847H41.6782C41.6859 14.1426 41.8365 13.6215 41.9561 12.9308C42.2117 11.4557 42.5871 9.83809 44.4583 10.3243C44.5202 10.0749 44.546 9.79195 44.6249 9.55781ZM13.433 9.53231C13.4006 9.53658 13.4028 9.57269 13.4051 9.60891C13.1417 11.4195 12.7852 13.1446 12.4044 14.847H13.5998C13.887 13.0242 14.216 11.2401 14.6284 9.53221L13.433 9.53231ZM23.9415 9.43012C23.0777 9.49134 22.3476 9.71973 21.8287 10.2222C21.1922 10.8385 20.6769 12.201 20.8279 13.4418C21.0434 15.212 23.4414 15.1484 25.3593 14.7194C25.392 14.4087 25.4738 14.1431 25.5261 13.8506C24.736 14.1223 23.3642 14.5016 22.5514 14.0296C21.9378 13.6729 21.9342 12.7701 22.1344 11.9854C23.4234 11.9477 24.7632 11.9548 26.0542 11.9854C26.136 11.4292 26.3703 10.8228 26.1653 10.2734C25.895 9.54819 24.9268 9.36028 23.9415 9.43012ZM25.0812 11.372H22.2733C22.3622 10.7787 22.943 10.1266 23.858 10.0945C24.7192 10.0642 25.3358 10.3851 25.0812 11.372ZM19.4101 9.53231C18.3983 9.18298 17.1653 9.59998 16.6306 9.99663C16.6326 10.0141 16.6179 10.0165 16.6021 10.0178C16.6112 10.0107 16.6211 10.0037 16.6306 9.99663C16.6305 9.99517 16.6303 9.99371 16.6301 9.99227C16.639 9.82172 16.7043 9.70286 16.7134 9.53231H15.6848C15.2562 12.1534 14.7478 14.7012 14.2115 17.2233H15.4068C15.5799 16.2411 15.6941 15.2048 15.9351 14.2849C16.2081 15.2525 17.9907 15.0676 18.743 14.6938C20.2949 13.9223 21.492 10.251 19.4101 9.53231ZM18.4649 13.8506C17.8253 14.4731 16.253 14.4638 16.1296 13.4161C16.076 12.9603 16.2607 12.4824 16.3522 12.0109C16.4445 11.5335 16.5111 11.0756 16.6022 10.6566C17.2322 9.94961 19.0833 9.86418 19.2711 11.0399C19.434 12.0606 18.9945 13.335 18.4649 13.8506ZM49.0728 7.23264C48.9704 8.0583 48.8334 8.8523 48.656 9.60891C45.7237 8.75577 43.9254 10.7387 43.9578 13.1862C43.9642 13.6596 44.0528 14.129 44.3747 14.4638C44.9299 15.0406 46.5191 15.1789 47.3217 14.6937C47.4769 14.5998 47.6357 14.429 47.7385 14.3105C47.8159 14.2213 47.9387 13.9877 47.961 14.055C47.9187 14.3142 47.8557 14.5545 47.8499 14.847H48.9341C49.1432 12.092 49.7892 9.73897 50.2685 7.23254H49.073V7.23264H49.0728ZM46.4041 14.2593C45.5994 14.2752 45.1993 13.8174 45.1808 13.0585C45.1487 11.7292 45.7831 10.2524 47.0713 10.12C47.6711 10.0583 48.1053 10.1865 48.5448 10.3244C48.1413 11.8176 48.2869 14.2222 46.4041 14.2593ZM36.0902 9.53231C36.0313 9.83591 35.941 10.1106 35.8678 10.401C36.5732 10.2384 38.7698 9.73997 38.9815 10.6054C39.0517 10.8929 38.9305 11.1984 38.8424 11.4231C36.8562 11.2502 35.2373 11.5535 34.8113 12.854C34.5262 13.7251 34.8433 14.5823 35.4508 14.8216C36.6208 15.2823 38.044 14.7545 38.5366 14.0296C38.4855 14.2805 38.437 14.5342 38.4534 14.8471H39.4819C39.4929 13.9417 39.6362 13.2088 39.7877 12.394C39.9168 11.7002 40.1598 11.0134 40.1213 10.401C40.0328 8.99864 37.5051 9.49471 36.0902 9.53231ZM38.0362 13.825C37.4201 14.3793 35.6909 14.5367 35.8678 13.2117C36.0146 12.1113 37.3184 11.8774 38.731 12.0363C38.6261 12.6383 38.5056 13.4026 38.0362 13.825Z" fill="white"/>
</g>
<defs>
<clipPath id="clip0_1605_191">
<rect width="55" height="22" fill="white" transform="translate(0 0.691406)"/>
</clipPath>
</defs>
</svg>
